<svg width="500" height="500" xmlns="http://www.w3.org/2000/svg">
 <metadata id="metadata3311">image/svg+xml</metadata>

 <g>
  <title>background</title>
  <rect x="-1" y="-1" width="502" height="502" id="canvas_background" fill="none"/>
 </g>
 <g>
  <title>Layer 1</title>
  <g id="Layer_2_1_" transform="matrix(1.7644679,0,0,1.7644679,-189.59265,-188.75882) "/>
  <g id="Layer_3" transform="matrix(1.7644679,0,0,1.7644679,-189.59265,-188.75882) ">
   <g id="elektro_unterhaltung">
    <path d="m147.88,169.318l0,129.875l203.62,0l0,-129.875l-203.62,0zm192.767,104.713c0,2.758 -2.234,4.996 -4.993,4.996l-171.197,0c-2.763,0 -4.997,-2.238 -4.997,-4.996l0,-85.767c0,-2.758 2.234,-4.994 4.997,-4.994l171.197,0c2.759,0 4.993,2.236 4.993,4.994l0,85.767z" id="path3299" fill="#93b7be"/>
    <path d="m319.191,327.928l-57.038,0l0,-20.289l-23.378,0l0,20.289l-56.783,0c-2.437,0 -4.406,1.974 -4.406,4.411c0,2.437 1.97,4.411 4.406,4.411l137.199,0c2.437,0 4.415,-1.975 4.415,-4.411c0,-2.438 -1.978,-4.411 -4.415,-4.411z" id="path3301" fill="#93b7be"/>
    <path d="m244.415,258.733c-1.143,1.153 -3.014,1.153 -4.17,0l0,0c-1.152,-1.157 -1.152,-3.022 0,-4.176l50.308,-50.307c1.148,-1.152 3.013,-1.152 4.175,0l0,0c1.153,1.155 1.153,3.025 0,4.177l-50.313,50.306z" id="path3303" fill="#93b7be"/>
    <path d="m216.191,261.303c-1.162,1.152 -3.027,1.152 -4.18,0l0,0c-1.152,-1.156 -1.152,-3.027 0,-4.18l50.303,-50.303c1.156,-1.152 3.026,-1.152 4.18,0l0,0c1.152,1.155 1.152,3.022 0,4.175l-50.303,50.308z" id="path3305" fill="#93b7be"/>
   </g>
  </g>
 </g>
</svg>