<svg width="500" height="500" xmlns="http://www.w3.org/2000/svg">
 <metadata id="metadata5636">image/svg+xml</metadata>

 <g>
  <title>background</title>
  <rect x="-1" y="-1" width="502" height="502" id="canvas_background" fill="none"/>
 </g>
 <g>
  <title>Layer 1</title>
  <g id="Layer_2" transform="matrix(1.7682433,0,0,1.7682433,-190.12389,-189.87629) ">
   <path d="m325.504,231.246l-0.597,-0.262l0.211,-3.326l23.458,-44.604l-80.813,-31.44l-18.966,39.988l-25.709,-38.164l-76.774,39.878l29.9,45.813l-28.875,35.417l31.769,15.415l1.447,29.454l71.412,38.276l67.778,-46.945l1.665,-25.782l34.606,-21.766l-30.946,-31.679l0.434,-0.273zm-3.519,44.858l-7.517,4.729l-31.062,19.534l-26.138,-26.201l60.08,-37.788l1.497,-0.941l5.415,5.546l20.382,20.869l-22.657,14.252zm-163.33,-4.057l18.457,-22.636l5.184,-6.355l1.749,0.806l65.152,29.987l-26.328,29.356l-36.787,-17.851l-7.376,-3.582l-20.051,-9.725zm91.976,-65.521l59.079,25.692l0.432,0.191l-56.525,35.553l-61.374,-28.248l1.075,-0.61l57.313,-32.578zm20.764,-45.78l67.066,26.089l-20.416,38.828l-0.148,2.272l-64.969,-28.254l18.467,-38.935zm-114.721,35.291l64.032,-33.259l25.569,37.951l-63.119,35.878l-26.482,-40.57zm29.809,97.509l38.122,18.495l24.762,-27.606l-1.135,63.102l-60.691,-32.534l-1.058,-21.457zm126.3,13.268l-57.334,39.717l1.128,-62.869l25.793,25.857l31.526,-19.83l-1.113,17.125z" id="path5630" fill="#93b7be"/>
  </g>
 </g>
</svg>