<svg width="500" height="500" xmlns="http://www.w3.org/2000/svg">
 <metadata id="metadata3624">image/svg+xml</metadata>

 <g>
  <title>background</title>
  <rect x="-1" y="-1" width="502" height="502" id="canvas_background" fill="none"/>
 </g>
 <g>
  <title>Layer 1</title>
  <g id="Layer_2_2_" transform="matrix(1.7682397,0,0,1.7682354,-193.235,-190.05917) ">
   <path d="m144.264,119.643c0.069,0.149 0.122,0.302 0.18,0.454c0.304,-0.104 0.608,-0.208 0.92,-0.294l12.961,25.533l-4.93,7.445l6.234,12.675l-5.577,18.726l17.465,35.492l11.005,-5.417l13.336,27.119c0.277,0.623 2.844,6.074 7.933,6.074c1.105,0 2.216,-0.269 3.302,-0.803c1.865,-0.916 3.159,-2.377 3.744,-4.221c1.156,-3.626 -0.845,-7.461 -1.026,-7.79l-13.389,-27.221l11.761,-5.787l13.298,27.046c0.275,0.621 2.838,6.076 7.932,6.076c1.104,0 2.214,-0.271 3.3,-0.806c1.868,-0.917 3.161,-2.375 3.746,-4.219c1.151,-3.627 -0.846,-7.457 -1.028,-7.786l-13.351,-27.15l10.367,-5.103l-17.461,-35.491l-18.242,-7.002l-6.234,-12.667l-8.931,-0.646l-7.168,-14.634l0.637,0c-0.955,-1.944 -1.798,-3.942 -2.749,-5.889c-0.102,-0.209 -0.189,-0.417 -0.263,-0.623l-7.224,0l2.788,5.576c0.302,0.604 0.47,1.195 0.55,1.768l7.49,15.298l-12.519,6.164l-11.321,-22.295l0.943,0c-0.415,-0.631 -0.812,-1.268 -1.185,-1.918c-1.033,-1.474 -2.039,-2.96 -2.875,-4.559c-2.67,0.086 -5.224,0.636 -7.568,1.605c0.755,1.151 1.516,2.295 2.203,3.487c0.34,0.578 0.662,1.168 0.946,1.783zm60.917,117.378c0.311,0.585 1.106,2.547 0.691,3.838c-0.106,0.322 -0.322,0.74 -1.078,1.111c-0.367,0.18 -0.703,0.269 -1.003,0.269c-1.367,0 -2.731,-2.015 -3.214,-3.069l-13.383,-27.215l4.553,-2.239l13.434,27.305zm25.62,-12.7c0.31,0.588 1.104,2.55 0.689,3.836c-0.105,0.322 -0.321,0.741 -1.076,1.111c-0.366,0.181 -0.702,0.274 -1.001,0.274c-1.369,0 -2.728,-2.017 -3.211,-3.073l-13.342,-27.144l4.548,-2.238l13.393,27.234zm-6.374,-37.367l-50.18,24.695l-12.978,-26.372l50.179,-24.695l12.979,26.372zm-19.088,-30.045l-43.252,21.287l3.247,-10.899l29.389,-14.463l10.616,4.075zm-41.504,-9.042l16.403,-8.076l6.411,0.463l3.912,7.949l-26.361,12.972l-3.911,-7.952l3.546,-5.356z" id="path3596" fill="#93b7be"/>
   <g id="g3598">
    <path d="m367.961,288.032l-71.207,0l0,-6.209l-5.181,0c0.059,-2.374 -0.848,-5.136 -2.751,-8.369c-3.457,-5.872 -3.751,-12.99 -0.686,-16.559c2.622,-3.052 7.626,-3.301 14.091,-0.715c3.969,1.588 8.465,4.058 13.218,6.673c16.127,8.857 38.05,20.828 65.32,12.24l0,0.752c2.809,-1.552 3.392,-1.875 3.405,-1.88c0.819,-0.486 3.731,-2.022 4.541,-2.527c1.156,-0.722 -3.17,1.998 -2.154,2.155c0.293,-0.11 0.59,-0.215 0.884,-0.321l0,-8.73c-2.044,0.483 -6.4,2.158 -6.676,2.243l0,1.317c-25.497,8.992 -45.79,-2.14 -62.102,-11.1c-4.943,-2.716 -9.608,-5.28 -13.952,-7.02c-12.591,-5.042 -18.961,-0.559 -21.639,2.562c-4.998,5.819 -5.004,15.812 -0.003,24.294c1.656,2.813 1.907,4.396 1.793,4.984l-3.481,0l0,6.209l-139.53,0l0,89.269c-0.422,-0.057 -0.838,-0.134 -1.248,-0.227c0.143,0.72 0.287,1.438 0.416,2.159c0.162,0.525 0.299,1.06 0.409,1.598c0.326,0.908 0.636,1.822 1.026,2.698c0.081,0.182 0.151,0.366 0.217,0.552c0.422,0.024 0.844,0.055 1.272,0.055l221.229,0c0.143,0 0.283,-0.008 0.424,-0.011c0.272,-0.868 0.728,-1.593 1.317,-2.15c0.583,-1.4 1.04,-2.827 1.341,-4.399c0.042,-0.169 0.094,-0.326 0.147,-0.482c-0.148,0.031 -0.292,0.073 -0.441,0.101l0,-89.162l0.001,0zm-18.779,81.076l-193.655,0l0,-22.732l4.636,0c0,0 1.903,-0.179 1.903,-1.973l0,-15.789c0,-1.463 -2.063,-1.773 -2.063,-1.773l-4.475,0l0,-23.325l193.655,0l0,65.592l-0.001,0z" id="path3600" fill="#93b7be"/>
    <g id="g3602">
     <path d="m189.959,347.594l7.192,0l0,-7.555l7.554,0l0,-7.195l-7.554,0l0,-7.555l-7.192,0l0,7.555l-7.555,0l0,7.195l7.555,0l0,7.555l0,0z" id="path3604" fill="#93b7be"/>
    </g>
    <rect x="281.755" y="332.20801" width="21.855" height="8.47" id="rect3606" fill="#93b7be"/>
    <g id="g3608">
     <path d="m342.496,323.146c-1.514,0 -2.741,1.221 -2.747,2.725l-0.07,21.468c-0.006,0.728 0.274,1.415 0.792,1.937c0.518,0.518 1.198,0.802 1.93,0.808l0.013,0.521l0,-0.521c1.501,0 2.729,-1.228 2.734,-2.728l0.07,-21.469c0.006,-0.731 -0.28,-1.418 -0.792,-1.937c-0.512,-0.519 -1.199,-0.804 -1.93,-0.804l0,0z" id="path3610" fill="#93b7be"/>
    </g>
    <g id="g3612">
     <path d="m330.35,325.664c-0.244,0 -0.489,0.032 -0.724,0.103c-0.707,0.189 -1.291,0.647 -1.654,1.277c-0.362,0.637 -0.458,1.374 -0.261,2.08l4.506,16.425c0.391,1.418 1.917,2.314 3.36,1.914c0.706,-0.191 1.295,-0.649 1.653,-1.285c0.362,-0.636 0.455,-1.373 0.261,-2.078l-4.508,-16.427c-0.322,-1.182 -1.406,-2.009 -2.633,-2.009l0,0z" id="path3614" fill="#93b7be"/>
    </g>
    <g id="g3616">
     <path d="m322.751,328.742c-0.744,0 -1.431,0.286 -1.945,0.808c-0.515,0.519 -0.795,1.208 -0.789,1.938l0.041,10.271c0.011,1.501 1.233,2.722 2.738,2.722l0.013,0.521l-0.003,-0.521c0.734,0 1.414,-0.286 1.93,-0.808c0.516,-0.518 0.795,-1.208 0.791,-1.939l-0.041,-10.27c-0.009,-1.501 -1.234,-2.722 -2.735,-2.722l0,0z" id="path3618" fill="#93b7be"/>
    </g>
   </g>
  </g>
 </g>
</svg>