<svg width="500" height="500" xmlns="http://www.w3.org/2000/svg">
 <metadata id="metadata4103">image/svg+xml</metadata>

 <g>
  <title>background</title>
  <rect x="-1" y="-1" width="502" height="502" id="canvas_background" fill="none"/>
 </g>
 <g>
  <title>Layer 1</title>
  <g id="Layer_2_1_" transform="matrix(1.7682433,0,0,1.7682433,-192.12389,-189.52035) "/>
  <g id="Layer_3" transform="matrix(1.7682433,0,0,1.7682433,-192.12389,-189.52035) ">
   <path d="m323.129,173.941l-2.184,-2.414c0.048,-0.044 0.088,-0.084 0.128,-0.121c0.439,-0.402 0.838,-0.775 1.196,-1.181c1.475,-1.782 1.211,-4.404 0.98,-5.264l-0.735,-2.787l-48.714,0l-0.654,2.926c-0.392,1.741 -0.059,4.174 1.488,5.619c0.293,0.285 0.586,0.571 0.863,0.849c-0.351,0.402 -0.834,0.937 -1.492,1.631c-2.473,2.524 -4.931,5.246 -7.367,8.172c-5.012,6.343 -8.706,13.191 -10.978,20.39c-2.433,7.935 -3.604,16.121 -3.486,24.278l-0.007,2.531l0.168,94.925l0.281,13.623l0.685,6.738c0.432,4.016 1.423,7.944 2.904,11.584c0.388,1.024 0.878,2.093 1.39,3.036l2.935,5.992l77.144,0l2.651,-9.276c1.99,-6.646 2.897,-11.308 3.486,-17.848c0.362,-4.499 0.513,-9.131 0.45,-13.718l-0.176,-94.603l0.183,-2.89l0.008,-0.205c0.12,-17.282 -4.891,-32.702 -14.522,-44.627c-2.118,-2.561 -4.383,-5.074 -6.625,-7.36zm13.513,79.525l-76.771,0l0,7.491l76.781,0l0.026,10.872l-76.808,0l0,7.491l76.818,0l0.019,10.009l-76.837,0l0,7.491l76.852,0l0.047,26.864c0.059,4.397 -0.084,8.794 -0.42,13.022c-0.538,5.948 -1.376,10.228 -3.212,16.373l-1.112,3.896l-66.824,0l-0.94,-1.925c-0.424,-0.782 -0.775,-1.547 -1.079,-2.352c-1.254,-3.08 -2.074,-6.328 -2.433,-9.636l-0.644,-6.255l-0.278,-13.403l-0.168,-94.837l0.008,-2.575c-0.11,-7.44 0.954,-14.852 3.149,-22.008c1.986,-6.297 5.253,-12.344 9.639,-17.896c2.246,-2.696 4.565,-5.268 6.979,-7.733c2.594,-2.729 3.646,-4.17 4.023,-5.512l0.073,-0.348c0.168,-0.955 0.096,-1.917 -0.22,-2.832l29.81,0c-0.362,0.966 -0.476,2.063 -0.099,3.278l0.146,0.395c0.409,0.937 0.958,1.8 1.656,2.59l2.847,3.146c2.198,2.246 4.319,4.602 6.28,6.972c8.486,10.502 12.92,24.241 12.832,39.729l-0.189,3.021l0.049,24.672z" id="path4091" fill="#93b7be"/>
   <polygon points="323.034,135.283 274.123,135.283 274.021,155.354 281.512,155.391 281.512,155.373 319.189,155.373 322.936,155.391 " id="polygon4093" fill="#93b7be"/>
   <path d="m185.572,308.072c-1.493,-1.236 -3.294,-2.136 -5.35,-2.678c-2.112,-0.541 -4.377,-0.819 -6.73,-0.819l-17.242,0l0,58.663l11.852,0l0,-23.663l4.022,0c2.996,0 5.683,-0.454 7.989,-1.347c2.259,-0.877 4.185,-2.15 5.712,-3.782c1.513,-1.616 2.678,-3.614 3.462,-5.933c0.787,-2.342 1.187,-4.997 1.187,-7.901c0,-3.044 -0.448,-5.611 -1.332,-7.646c-0.872,-2.011 -2.074,-3.657 -3.57,-4.894zm-7.658,20.478c-1.317,1.559 -3.468,2.349 -6.394,2.349l-3.418,0l0,-18.246l3.931,0c2.491,0 4.43,0.658 5.77,1.968c1.361,1.332 2.023,3.468 2.023,6.548c-0.001,3.437 -0.628,5.852 -1.912,7.381z" id="path4095" fill="#93b7be"/>
   <polygon points="229.137,363.238 229.137,354.043 210.964,354.043 210.964,337.512 225.364,337.512 225.364,328.323 210.964,328.323 210.964,313.771 228.06,313.771 229.254,304.575 199.112,304.575 199.112,363.238 " id="polygon4097" fill="#93b7be"/>
  </g>
 </g>
</svg>