<svg width="500" height="500" xmlns="http://www.w3.org/2000/svg">
 <metadata id="metadata4656">image/svg+xml</metadata>

 <g>
  <title>background</title>
  <rect x="-1" y="-1" width="502" height="502" id="canvas_background" fill="none"/>
 </g>
 <g>
  <title>Layer 1</title>
  <g id="Layer_2_1_" transform="matrix(1.7682433,0,0,1.7682433,-189.8866,-189.639) "/>
  <g id="Layer_3" transform="matrix(1.7682433,0,0,1.7682433,-189.8866,-189.639) ">
   <path d="m327.198,269.568l-0.003,-14.559c0.073,-1.802 0.107,-3.589 0.107,-5.376c0,-9.453 -0.702,-18.231 -2.087,-26.077c-0.375,-2.156 -0.82,-4.292 -1.366,-6.545c-0.602,-2.469 -1.346,-4.932 -2.201,-7.324c-0.696,-1.913 -1.392,-3.619 -2.094,-5.135c-0.744,-1.701 -1.607,-3.478 -2.637,-5.453c-1.426,-2.702 -2.994,-5.418 -4.653,-8.058c-3.234,-5.192 -7.202,-11.32 -12.155,-17.386c-0.594,-0.723 -1.001,-1.28 -1.395,-1.808c-0.626,-0.855 -1.224,-1.663 -2.295,-2.869l-1.061,-1.197l-37.349,0l-1.061,1.197c-1.735,1.958 -2.535,2.949 -3.94,4.685l-0.448,0.549c-2.633,3.255 -4.666,6.33 -6.819,9.585c-0.671,1.016 -1.354,2.052 -2.078,3.116c-4.615,6.869 -8.169,13.424 -10.726,19.58c-0.145,-0.15 -0.287,-0.313 -0.433,-0.459l-1.433,-1.593c0.265,-0.243 0.513,-0.494 0.75,-0.758c1.284,-1.551 1.153,-3.77 0.904,-4.73l-0.694,-2.664l-40.419,0l-0.633,2.769c-0.354,1.558 -0.059,3.742 1.348,5.063c0.119,0.118 0.238,0.233 0.355,0.348c-0.235,0.261 -0.525,0.571 -0.88,0.943c-2.019,2.064 -4.024,4.283 -6.019,6.683c-4.118,5.203 -7.147,10.83 -9.015,16.756c-1.994,6.504 -2.956,13.216 -2.858,19.886l-0.005,2.059l0.137,77.207l0.229,11.081l0.553,5.522c0.365,3.325 1.184,6.566 2.396,9.543c0.322,0.849 0.729,1.739 1.149,2.519l2.523,5.161l63.442,0l1.638,-5.725l64.132,0c1.329,0 2.626,0.014 3.854,0.021c1.127,0.014 2.198,0.028 3.192,0.028l0,0c5.186,0 7.603,-0.271 9.157,-1.948c0.79,-0.849 1.179,-1.954 1.106,-2.845l-0.115,-79.906c0.005,-0.641 -0.036,-1.274 -0.1,-1.886zm-87.43,82.341l-0.8,2.796l-11.667,0l-41.961,0l-0.629,-1.287c-0.314,-0.591 -0.595,-1.183 -0.855,-1.871c-1,-2.448 -1.655,-5.05 -1.944,-7.692l-0.522,-5.063l-0.223,-10.865l-0.043,-24.644l44.674,0l7.123,0l9.74,0l0.043,24.866c0.049,3.568 -0.069,7.123 -0.341,10.545c-0.348,3.854 -0.847,6.768 -1.78,10.301c-0.245,0.925 -0.502,1.87 -0.815,2.914zm-58.739,-101.114l0.005,-2.108c-0.087,-5.981 0.77,-11.957 2.537,-17.723c1.598,-5.064 4.224,-9.933 7.743,-14.384c1.815,-2.177 3.692,-4.257 5.603,-6.211c2.212,-2.302 3.112,-3.553 3.446,-4.773l0.073,-0.334c0.106,-0.619 0.099,-1.241 -0.024,-1.85l22.877,0c-0.146,0.696 -0.136,1.468 0.122,2.295l0.141,0.382c0.356,0.814 0.834,1.56 1.436,2.242l2.329,2.581c1.009,1.029 1.982,2.08 2.93,3.144c0.735,0.828 1.46,1.655 2.146,2.483c1.238,1.53 2.329,3.179 3.349,4.869c4.624,7.679 7.044,16.916 6.98,27.002l-0.158,2.671l0.031,17.159l-9.4,0l-7.123,0l-45.012,0l-0.031,-17.445zm0.042,23.997l44.892,0l7.123,0l9.522,0l0.014,7.692l-9.58,0l-7.123,0l-44.834,0l-0.014,-7.692zm0.026,14.245l44.782,0l7.123,0l9.632,0l0.014,7.692l-9.689,0l-7.123,0l-44.725,0l-0.014,-7.692zm132.934,59.964c-1.248,-0.007 -2.566,-0.021 -3.923,-0.021l-62.19,0c0.748,-3.165 1.219,-6.086 1.541,-9.689c0.292,-3.672 0.416,-7.449 0.367,-11.191l-0.146,-76.811l0.158,-2.637c0.098,-13.974 -3.919,-26.452 -11.614,-36.19c0.04,-0.111 0.07,-0.229 0.11,-0.341c2.367,-6.512 6.15,-13.656 11.238,-21.23c0.732,-1.078 1.428,-2.132 2.11,-3.165c2.059,-3.109 3.999,-6.044 6.413,-9.028l0.452,-0.556c1.008,-1.249 1.689,-2.094 2.681,-3.238l30.873,0c0.327,0.414 0.598,0.783 0.876,1.165c0.459,0.619 0.936,1.266 1.621,2.101c4.695,5.746 8.507,11.634 11.63,16.652c1.571,2.504 3.054,5.057 4.386,7.582c0.945,1.815 1.735,3.457 2.451,5.079c0.644,1.391 1.26,2.908 1.885,4.625c0.77,2.149 1.434,4.361 1.979,6.594c0.508,2.087 0.922,4.076 1.272,6.08c1.312,7.449 1.979,15.81 1.979,24.853c0,1.69 -0.031,3.38 -0.104,5.231l0,14.892l0.021,0.396c0.049,0.417 0.084,0.862 0.084,1.308l0.118,77.5c-1.203,0.067 -3.548,0.074 -6.268,0.039z" id="path4644" fill="#93b7be"/>
   <path d="m289.621,190.905c-0.379,0 -0.762,0.028 -1.134,0.083c-3.488,0.529 -8.037,3.693 -9.874,15.734c-1.23,8.07 -1.001,18.455 0.647,29.236c1.683,11.045 5.411,25.743 18.217,25.743c0.974,0 1.989,-0.083 3.108,-0.258c3.332,-0.507 8.014,-1.863 10.135,-7.721c1.669,-4.604 1.662,-11.56 -0.021,-22.563c-2.966,-19.392 -10.826,-40.254 -21.078,-40.254zm14.404,60.391c-0.713,1.961 -1.77,2.691 -4.51,3.108c-0.759,0.119 -1.427,0.174 -2.038,0.174c-2.233,0 -8.17,0 -11.178,-19.698c-1.541,-10.086 -1.767,-19.706 -0.647,-27.079c1.189,-7.802 3.384,-9.691 3.969,-9.774c2.987,0 10.652,12.07 14.032,34.21c1.458,9.494 1.579,15.727 0.372,19.059z" id="path4646" fill="#93b7be"/>
   <path d="m296.204,162.662l0,-18.7l-0.007,0c-0.185,-3.082 -2.786,-5.53 -5.954,-5.53l-26.487,0c-3.108,0 -5.731,2.361 -5.995,5.363l0,0.059c-0.015,0.149 0,18.808 0,18.808l38.443,0z" id="path4648" fill="#93b7be"/>
   <polygon points="190.753,172.577 190.753,189.757 232.512,189.792 232.512,172.577 " id="polygon4650" fill="#93b7be"/>
  </g>
 </g>
</svg>