<svg width="500" height="500" xmlns="http://www.w3.org/2000/svg">
 <metadata id="metadata5089">image/svg+xml</metadata>

 <g>
  <title>background</title>
  <rect x="-1" y="-1" width="502" height="502" id="canvas_background" fill="none"/>
 </g>
 <g>
  <title>Layer 1</title>
  <g id="Layer_2" transform="matrix(1.7682433,0,0,1.7682433,-190.00524,-189.52035) "/>
  <g id="Layer_3" transform="matrix(1.7682433,0,0,1.7682433,-190.00524,-189.52035) ">
   <path d="m336.438,222.552c-2.343,-5.021 -4.551,-9.764 -5.312,-12.877c-1.842,-7.548 -1.894,-19.532 -1.894,-20.875l0,-19.862l1.348,-1.623l0,-10.342l-1.447,-1.52c0.01,-0.237 0.013,-0.47 0.013,-0.675c0,-3.718 -2.567,-5.043 -4.968,-5.043l-17.859,0c-2.4,0 -4.965,1.325 -4.965,5.043c0,0.205 0.003,0.438 0.01,0.675l-1.447,1.52l0,10.342l1.351,1.623l0,19.862c0,1.343 -0.051,13.327 -1.893,20.875c-0.761,3.113 -2.969,7.856 -5.312,12.877c-2.433,5.218 -5.196,11.135 -7.055,16.749c-1.822,5.498 -3.177,10.003 -4.095,14.321c-1.989,-0.021 -4.165,-0.028 -6.56,-0.028c-2.574,0 -5.347,0.008 -8.325,0.033l-3.616,0c-2.979,-0.025 -2.674,-0.033 -5.247,-0.033c-21.711,0 -29.233,0.821 -30.7,1.664c-3.065,1.352 -3.065,3.965 -3.065,4.953l0.048,2.494c-0.947,0.551 -2.054,2.287 -2.054,3.787c0,0.549 0.183,1.123 0.503,1.602c0.802,1.229 2.503,0.91 2.645,3.189c-0.414,1.303 -0.783,2.295 -1.823,3.373c-1.175,1.225 -2.638,2.746 -3.389,5.109c-0.054,0.215 -0.112,0.486 -0.112,0.805c0,9.115 0.642,30.09 1.079,43.488l0.446,13.91c0.787,4.209 3.787,7.811 5.562,9.967l0.562,0.672c0.205,0.289 0.488,0.535 0.831,0.721c4.801,2.779 16.043,4.191 33.405,4.225l2.35,-0.01l3.254,0.016c4.91,0 9.316,-0.115 13.254,-0.334c0.953,5.842 4.108,7.693 7.183,8.678l0.202,0.064c2.256,0.732 8.064,0.957 24.881,0.957l2.048,0c16.813,0 22.625,-0.225 24.882,-0.957l0.198,-0.064c3.579,-1.148 7.267,-3.453 7.478,-11.861c0.196,-7.939 0.206,-81.617 0.206,-82.359c0,-9.91 -1.788,-17.045 -5.546,-28.381c-1.859,-5.615 -4.619,-11.532 -7.055,-16.75zm-54.974,45.13c0,0.693 0.006,64.754 0.167,79.873c-3.81,0.209 -8.094,0.316 -12.779,0.316l-5.261,0c-15.503,0 -26.694,-1.209 -30.433,-3.129c-1.021,-1.039 -4.153,-4.209 -4.711,-7.402c0.009,-0.232 -0.016,-3.402 -0.106,-5.854l-0.215,-6.914c-0.436,-13.35 -1.088,-34.262 -1.155,-43.299c0.35,-0.977 1.079,-1.777 2.009,-2.76c1.71,-1.791 2.875,-4.256 2.988,-8.971c0,-0.988 -0.437,-7.949 -0.437,-8.77l0.292,-0.508c1.136,-0.393 6.226,-1.156 32.545,-0.973l3.706,0c5.508,-0.041 10.077,-0.035 13.887,-0.004c-0.33,2.676 -0.497,5.406 -0.497,8.395zm6.155,0c0,-2.971 0.17,-5.658 0.523,-8.299c9.232,0.203 11.727,0.623 12.474,0.883l0.296,0.508c0,0.82 -0.437,7.781 -0.437,8.77c0.115,4.715 1.28,7.18 2.991,8.971c0.927,0.982 1.655,1.783 2.005,2.76c-0.063,9.037 -0.719,29.949 -1.155,43.299l-0.215,6.914c-0.086,2.451 -0.112,5.621 -0.105,5.854c-0.556,3.193 -3.688,6.363 -4.711,7.402c-1.952,0.998 -5.947,1.807 -11.506,2.35c-0.157,-15.635 -0.16,-78.725 -0.16,-79.412zm55.062,82.214c-0.132,5.299 -1.711,5.807 -3.241,6.293l-0.231,0.078c-2.07,0.648 -16.691,0.648 -22.934,0.648l-2.048,0c-6.241,0 -20.863,0 -22.933,-0.648l-0.234,-0.078c-1.188,-0.375 -2.404,-0.779 -2.949,-3.42c6.97,-0.693 11.874,-1.84 14.637,-3.441c0.341,-0.186 0.626,-0.432 0.832,-0.721l0.558,-0.672c1.778,-2.156 4.775,-5.758 5.565,-9.967l0.442,-13.91c0.437,-13.398 1.078,-34.373 1.078,-43.488c0,-0.318 -0.054,-0.59 -0.112,-0.805c-0.747,-2.363 -2.211,-3.885 -3.389,-5.109c-1.04,-1.078 -1.409,-2.07 -1.823,-3.373c0.139,-2.279 1.846,-1.961 2.648,-3.189c0.32,-0.479 0.5,-1.053 0.5,-1.602c0,-1.5 -1.104,-3.236 -2.054,-3.787l0.048,-2.494c0,-0.988 0,-3.602 -3.064,-4.953c-1.113,-0.643 -3.96,-1.268 -14.798,-1.533c0.854,-3.722 2.07,-7.699 3.685,-12.575c1.749,-5.284 4.429,-11.035 6.797,-16.105c2.577,-5.528 4.801,-10.299 5.699,-13.977c2.003,-8.216 2.064,-20.854 2.064,-22.268l0,-21.998l-1.354,-1.621l0,-5.845l1.572,-1.648l-0.077,-1.277c0,-0.01 -0.016,-0.302 -0.032,-0.667l15.437,0c-0.016,0.366 -0.032,0.658 -0.035,0.667l-0.073,1.277l1.572,1.648l0,5.845l-1.352,1.621l0,21.998c0,1.414 0.055,14.052 2.058,22.268c0.898,3.678 3.122,8.448 5.699,13.977c2.369,5.07 5.049,10.821 6.801,16.105c3.626,10.945 5.247,17.37 5.247,26.532c-0.001,0.742 -0.011,74.343 -0.206,82.214z" id="path5055" fill="#93b7be"/>
   <path d="m157.471,172.099c3.925,0 7.025,-0.766 10.083,-2.67l0,-13.102l-10.876,0l0.873,5.276l3.187,0l0,4.687c-0.693,0.307 -1.785,0.46 -2.658,0.46c-3.321,0 -4.759,-2.708 -4.759,-8.331c0,-6.896 1.967,-8.835 5.151,-8.835c2.016,0 3.893,0.896 5.331,2.243l3.928,-4.217c-2.539,-2.25 -5.937,-3.452 -9.435,-3.452c-8.729,0 -12.567,6.588 -12.567,14.491c-0.001,10.472 6.636,13.45 11.742,13.45z" id="path5057" fill="#93b7be"/>
   <polygon points="173.838,171.639 188.363,171.639 189.676,166.29 180.642,166.29 180.642,144.625 173.838,144.625 " id="polygon5059" fill="#93b7be"/>
   <path d="m201.062,144.625l-8.556,27.014l7.205,0l1.482,-5.389l6.547,0l1.448,5.389l7.333,0l-8.039,-27.014l-7.42,0zm1.489,16.895l1.389,-6.2c0.309,-1.314 0.53,-2.672 0.568,-3.796l0.093,0c0.045,1.125 0.212,2.482 0.52,3.796l1.403,6.2l-3.973,0z" id="path5061" fill="#93b7be"/>
   <path d="m229.127,166.905c-2.664,0 -5.022,-0.961 -6.896,-2.202l-2.889,4.841c2.536,1.55 5.899,2.555 9.824,2.555c6.377,0 11.531,-3.177 11.531,-9.066c0,-5.037 -3.318,-6.743 -6.38,-7.713l-3.087,-0.968c-1.71,-0.541 -2.937,-1.353 -2.937,-2.829c0,-1.55 1.483,-2.288 3.277,-2.288c2.006,0 3.845,0.855 5.59,1.782l3.097,-4.458c-2.311,-1.433 -5.681,-2.4 -9.301,-2.4c-5.802,0 -10.08,3.413 -10.08,8.561c0,5.077 3.405,6.552 6.46,7.677l2.182,0.81c1.967,0.743 3.572,1.167 3.572,2.835c0,1.823 -1.566,2.863 -3.963,2.863z" id="path5063" fill="#93b7be"/>
   <path d="m158.825,192.977c-0.436,1.742 -0.882,2.904 -1.309,5.228l-0.093,0c-0.481,-2.323 -0.825,-3.563 -1.216,-5.228l-3.148,-13.914l-7.545,0l8.075,27.013l7.725,0l8.338,-27.013l-7.205,0l-3.622,13.914z" id="path5065" fill="#93b7be"/>
   <polygon points="181.033,184.371 189.152,184.371 189.852,179.063 174.226,179.063 174.226,206.076 189.932,206.076 189.932,200.65 181.033,200.65 181.033,194.641 187.67,194.641 187.67,189.443 181.033,189.443 " id="polygon5067" fill="#93b7be"/>
   <path d="m209.098,194.099c2.708,-0.583 5.411,-2.788 5.411,-7.319c0,-4.384 -2.445,-7.717 -10.777,-7.717l-8.562,0l0,27.016l6.813,0l0,-10.66c1.486,0 2.221,0.385 3.232,3.177l2.702,7.482l7.984,0c-0.863,-2.023 -3.139,-7.014 -4.095,-9.068c-0.66,-1.402 -1.79,-2.642 -2.708,-2.911zm-5.414,-3.68l-1.701,0l0,-6.084l1.653,0c2.317,0 3.408,0.658 3.408,2.824c0,2.018 -0.745,3.26 -3.36,3.26z" id="path5069" fill="#93b7be"/>
   <path d="m239.162,186.78c0,-4.384 -2.439,-7.717 -10.78,-7.717l-8.556,0l0,27.016l6.807,0l0,-10.66c1.483,0 2.224,0.385 3.238,3.177l2.702,7.482l7.985,0c-0.876,-2.023 -3.142,-7.014 -4.099,-9.068c-0.658,-1.402 -1.791,-2.643 -2.711,-2.912c2.712,-0.582 5.414,-2.787 5.414,-7.318zm-10.825,3.639l-1.704,0l0,-6.084l1.659,0c2.311,0 3.408,0.658 3.408,2.824c0.001,2.018 -0.744,3.26 -3.363,3.26z" id="path5071" fill="#93b7be"/>
   <polygon points="258.537,189.443 251.896,189.443 251.896,184.371 260.022,184.371 260.716,179.063 245.096,179.063 245.096,206.076 260.812,206.076 260.812,200.65 251.896,200.65 251.896,194.641 258.537,194.641 " id="polygon5073" fill="#93b7be"/>
   <path d="m158.825,227.411c-0.436,1.749 -0.882,2.912 -1.309,5.231l-0.093,0c-0.481,-2.319 -0.825,-3.562 -1.216,-5.231l-3.148,-13.911l-7.545,0l8.075,27.011l7.725,0l8.338,-27.011l-7.205,0l-3.622,13.911z" id="path5075" fill="#93b7be"/>
   <polygon points="181.033,218.805 189.152,218.805 189.852,213.5 174.226,213.5 174.226,240.511 189.932,240.511 189.932,235.09 181.033,235.09 181.033,229.08 187.67,229.08 187.67,223.884 181.033,223.884 " id="polygon5077" fill="#93b7be"/>
   <polygon points="207.127,218.771 213.244,218.771 214.117,213.5 194.075,213.5 194.075,218.771 200.228,218.771 200.228,240.516 207.127,240.516 " id="polygon5079" fill="#93b7be"/>
   <path d="m225.286,229.856c1.486,0 2.227,0.385 3.231,3.176l2.699,7.484l7.998,0c-0.876,-2.015 -3.152,-7.017 -4.108,-9.071c-0.658,-1.395 -1.794,-2.635 -2.708,-2.909c2.708,-0.583 5.417,-2.788 5.417,-7.319c0,-4.384 -2.449,-7.717 -10.786,-7.717l-8.546,0l0,27.016l6.804,0l0,-10.66l-0.001,0zm0,-11.085l1.659,0c2.314,0 3.411,0.661 3.411,2.827c0,2.016 -0.757,3.256 -3.376,3.256l-1.694,0l0,-6.083z" id="path5081" fill="#93b7be"/>
   <path d="m254.913,240.978c9.474,0 11.878,-7.251 11.878,-14.997c0,-5.933 -3.02,-12.945 -12.061,-12.945c-6.98,0 -11.816,5.037 -11.816,14.644c0,8.109 4.278,13.298 11.999,13.298zm-0.128,-22.94c2.927,0 4.403,1.433 4.403,8.721c0,7.125 -1.349,9.102 -4.275,9.102c-2.792,0 -4.357,-1.938 -4.357,-9.033c0,-5.152 1.129,-8.79 4.229,-8.79z" id="path5083" fill="#93b7be"/>
  </g>
 </g>
</svg>