<svg width="500" height="500" xmlns="http://www.w3.org/2000/svg">
 <metadata id="metadata6469">image/svg+xml</metadata>

 <g>
  <title>background</title>
  <rect x="-1" y="-1" width="502" height="502" id="canvas_background" fill="none"/>
 </g>
 <g>
  <title>Layer 1</title>
  <g id="Layer_2_1_" transform="matrix(1.7682433,0,0,1.7682433,-190.02219,-189.639) "/>
  <g id="Layer_3" transform="matrix(1.7682433,0,0,1.7682433,-190.02219,-189.639) ">
   <path d="m267.271,198.568c-1.902,-1.792 -3.166,-2.979 -3.166,-6.716c0,-6.015 0.02,-24.658 0.025,-32.096c1.283,-0.451 2.206,-1.676 2.206,-3.116c0,-0.207 -0.02,-0.408 -0.055,-0.604l-0.026,-7.988c-0.003,-1.416 -0.899,-2.62 -2.15,-3.087c-0.148,-2.288 -1.928,-3.917 -4.346,-3.917l-17.404,0c-2.409,0 -4.188,1.619 -4.343,3.899c-0.464,0.163 -0.893,0.427 -1.248,0.784c-0.619,0.622 -0.967,1.465 -0.967,2.342l0.032,8.581c0.007,1.435 0.922,2.655 2.206,3.106c-0.006,7.443 -0.026,26.082 -0.026,32.096c0,3.737 -1.261,4.923 -3.166,6.716c-0.342,0.319 -0.677,0.638 -1.009,0.967c-0.132,0.132 -13.151,13.332 -13.151,28.863l0,109.646c0,7.248 0.806,12.007 4.926,14.886c3.701,2.589 12.583,5.2 24.09,5.2l2.708,0c11.517,0 20.399,-2.611 24.098,-5.2c4.12,-2.886 4.926,-7.645 4.926,-14.886l0,-109.646c0,-15.532 -13.019,-28.731 -13.147,-28.863c-0.329,-0.329 -0.671,-0.648 -1.013,-0.967zm-39.985,38.874c9.853,2.368 23.469,1.749 29.939,1.261l0,77.47c-4.984,0.903 -16.946,2.334 -29.939,-1.45l0,-77.281zm47.543,100.603c0,6.661 -0.81,8.563 -2.108,9.473c-1.593,1.119 -8.348,4.011 -20.312,4.011l-2.709,0c-11.961,0 -18.706,-2.892 -20.302,-4.011c-1.338,-0.932 -2.112,-2.779 -2.112,-9.473l0,-16.469c6.522,1.693 12.713,2.257 17.978,2.257c9.254,0 15.679,-1.686 16.117,-1.805c1.444,-0.388 2.447,-1.696 2.447,-3.186l0,-83.748c0,-0.938 -0.406,-1.832 -1.103,-2.458c-0.697,-0.626 -1.65,-0.925 -2.56,-0.822c-0.226,0.021 -21.356,2.265 -32.88,-1.217l0,-2.199c0,-10.646 8.096,-21.074 11.217,-24.193c0.281,-0.28 0.571,-0.551 0.861,-0.825c2.212,-2.081 5.249,-4.932 5.249,-11.528c0,-7.58 0.029,-35.21 0.029,-35.21c0,-0.874 -0.345,-1.715 -0.964,-2.336c-0.354,-0.356 -0.79,-0.622 -1.254,-0.785l-0.009,-2.352c1.276,-0.457 2.192,-1.677 2.192,-3.11l0,-0.413l12.906,0l0,0.413c0,1.42 0.893,2.631 2.15,3.097l0.013,2.391c-1.251,0.471 -2.141,1.677 -2.141,3.09c0,0 -0.032,27.635 -0.032,35.215c0,6.596 3.03,9.447 5.248,11.528c0.291,0.274 0.581,0.545 0.864,0.825c3.121,3.119 11.214,13.548 11.214,24.193l0,109.647l0.001,0z" id="path6463" fill="#93b7be"/>
  </g>
 </g>
</svg>