<svg width="500" height="500" xmlns="http://www.w3.org/2000/svg">
 <metadata id="metadata4029">image/svg+xml</metadata>
 <g>
  <title>background</title>
  <rect fill="none" id="canvas_background" height="502" width="502" y="-1" x="-1"/>
 </g>
 <g>
  <title>Layer 1</title>
  <g transform="matrix(1.7682433,0,0,1.7682433,-190.36118,-189.75764) " id="Layer_2_1_"/>
  <g transform="matrix(1.7682433,0,0,1.7682433,-190.36118,-189.75764) " id="Layer_3">
   <path fill="#93b7be" id="path4011" d="m256.139,311.413c-3.092,0 -7.302,0 -7.302,0l0,12.353c0,0 5.336,0 7.441,0c2.104,0 4.074,-2.528 4.074,-5.898c0.001,-3.37 -1.128,-6.455 -4.213,-6.455z"/>
   <rect fill="#93b7be" id="rect4013" height="79.911" width="53.544" y="243.048" x="142.48801"/>
   <path fill="#93b7be" id="path4015" d="m142.461,343.156c0,0 0.2,6.031 1.006,10.956c0.804,4.926 6.229,6.634 7.94,6.932c1.705,0.304 7.636,-4.323 7.636,-4.323l-3.416,-5.932c0,0 -1.608,-2.509 -0.905,-3.111c0.705,-0.603 1.61,0.198 1.61,0.198l7.436,11.963c0,0 2.817,1.205 5.026,1.205c2.213,0 5.528,-1.007 5.528,-1.007l6.435,-10.758c0,0 1.605,-2.912 2.813,-2.104c1.207,0.801 0.402,1.708 0.402,1.708l-4.523,8.043c4.824,3.416 7.838,4.323 12.059,1.906c4.222,-2.409 4.523,-16.08 4.523,-16.08l0,-15.583l-53.371,0l-0.199,15.987z"/>
   <path fill="#93b7be" id="path4017" d="m177.92,165.231l0,-4.319l-17.778,0l0,4.488c0,0 -16.452,28.748 -17.781,54.339l0,19.112l53.672,0l-0.164,-19.615c-0.001,0 1.663,-19.276 -17.949,-54.005z"/>
   <polygon fill="#93b7be" id="polygon4019" points="159.03,138.976 157.97,140.469 157.98,153.266 180.58,153.266 180.25,140.634 179.249,138.976 "/>
   <path fill="#93b7be" id="path4021" d="m157.419,158.316c0,0 23.175,0.043 23.514,0c0.339,-0.04 0.932,-0.549 0.932,-1.271c0,-0.722 -0.889,-1.271 -0.889,-1.271l-23.514,0c0,0 -0.891,0.255 -0.891,1.271c0.001,1.02 0.848,1.271 0.848,1.271z"/>
   <path fill="#93b7be" id="path4023" d="m227.039,289.422l-0.003,0l0,70.854l128.993,0l0,-69.523l0.235,-151.13l-128.995,0l-0.23,149.799zm33.025,45.294c-5.468,0.284 -11.366,0.139 -11.366,0.139l0,17.418l-13.904,0l0,-52.239c0,0 20.924,-0.139 24.575,-0.139c3.648,0 15.306,3.092 15.306,17.556c0,14.458 -9.132,16.987 -14.611,17.265zm48.724,18.112l-30.26,0l0,-52.795l30.124,0l0,12.075l-16.285,0l0,8.149l15.163,0l0,11.79l-15.163,0l0,8.566l16.421,0l0,12.215zm40.441,-40.72l-10.949,0l0,40.581l-14.187,0l0,-40.581l-10.811,0l0,-12.354l35.946,0l0,12.354l0.001,0zm-110.515,-119.126c3.368,-7.497 7.118,-1.658 7.118,-1.658l19.923,20.158c0,0 -3.969,11.997 2.85,22.543c4.422,6.845 10.406,13.425 23.488,14.471c9.241,0.742 28.221,-8.069 27.996,-27.758c-0.186,-16.145 -11.863,-26.567 -27.281,-27.521c0,0 -0.238,5.932 -0.477,9.02c-0.238,3.082 -3.085,5.216 -5.224,5.69c-2.132,0.477 -5.925,0.715 -9.963,-3.793c-4.032,-4.508 -20.642,-20.879 -22.773,-23.488c-2.138,-2.608 -2.608,-7.593 1.424,-9.963c0,0 21.111,-17.318 25.388,-20.403c4.27,-3.085 6.633,-4.035 10.678,-0.95c4.028,3.084 2.84,9.254 2.84,11.151l13.856,2.635l-0.133,0.132c25.521,6.918 44.295,30.247 44.295,57.954c0,33.166 -26.881,60.05 -60.037,60.05c-29.241,0 -53.598,-20.899 -58.952,-48.578l-0.053,-0.218c-0.679,-3.555 -1.144,-7.375 -1.367,-11.473c0.001,0 -0.815,-11.937 6.404,-28.001z"/>
  </g>
 </g>
</svg>