<svg width="500" height="500" xmlns="http://www.w3.org/2000/svg">
 <metadata id="metadata5212">image/svg+xml</metadata>

 <g>
  <title>background</title>
  <rect x="-1" y="-1" width="502" height="502" id="canvas_background" fill="none"/>
 </g>
 <g>
  <title>Layer 1</title>
  <g id="Layer_2_1_" transform="matrix(1.7682433,0,0,1.7682433,-189.76796,-189.75764) "/>
  <g id="Layer_3" transform="matrix(1.7682433,0,0,1.7682433,-189.76796,-189.75764) ">
   <path d="m364.179,235.879l-48.345,-46.625c-16.499,-18.787 -41.986,-29.277 -66.858,-29.551c-50.371,-0.565 -89.152,39.378 -89.858,91.382l-25.896,6.551c0,0 -3.352,1.674 -1.086,4.238c2.266,2.556 38.646,36.988 38.646,36.988c24.423,25.693 43.191,38.73 77.478,40.455c49.516,2.49 91.817,-40.172 90.964,-91.959c0,0 18.065,-4.446 23.657,-6.172c5.599,-1.721 1.298,-5.307 1.298,-5.307zm-183.988,56.976l-30.775,-29.335l40.131,-10.616l-9.356,39.951zm69.023,34.878c-24.018,-0.094 -46.411,-12.114 -59.63,-27.442c11.031,-47.176 11.031,-47.176 12.621,-54.631c1.609,-7.54 -4.398,-4.487 -4.398,-4.487l-26.77,6.857c0.46,-42.679 37.402,-77.252 78.168,-76.612c21.343,0.332 43.958,10.403 58.581,27.091l-13.082,54.85c-1.111,5.765 4.059,4.239 4.059,4.239l27.949,-6.94c0,43.346 -36.674,77.25 -77.498,77.075zm58.836,-82.591l9.234,-39.962l30.732,29.806l-39.966,10.156z" id="path5202" fill="#93b7be"/>
   <path d="m266.169,189.182c-34.33,-8.471 -43.201,24.29 -43.201,24.29c0,0 -6.262,26.801 -13.271,58.86c-7.016,32.052 20.909,39.316 20.909,39.316c32.435,8.267 40.069,-22.914 40.069,-22.914c0,0 17.688,-57.538 18.154,-58.856c4.64,-13.024 -4.375,-36.192 -22.66,-40.696zm-24.837,113.329l-13.825,-3.515l1.59,-6.004l13.71,3.623l-1.475,5.896zm12.284,-40.612l-4.199,-1.019l-1.238,4.417l-6.01,-1.699l1.024,-4.077l-4.42,-1.134l1.357,-6.006l4.419,1.021l1.021,-4.53l6.121,1.472l-1.024,4.304l4.312,1.251l-1.363,6zm22.441,-24.38c-8.571,7.167 -20.405,6.887 -27.29,4.885c-6.894,-2.006 -13.274,-7.139 -17.663,-16.533c-4.374,-9.391 1.133,-16.781 1.133,-16.781c5.254,-10.142 14.024,-12.771 14.024,-12.771c17.906,-5.633 28.924,4.009 33.686,12.771c4.756,8.767 4.507,21.414 -3.89,28.429z" id="path5204" fill="#93b7be"/>
   <path d="m261.285,203.833c-10.927,-2.473 -14.146,6.511 -14.146,6.511l-0.884,2.756c0,0 -1.096,4.479 -1.625,6.387c-0.628,2.253 0,10.268 7.766,12.395c11.582,3.176 14.647,-5.884 14.647,-5.884c0,0 1.873,-6.792 2.387,-8.892c1.747,-7.141 -4.26,-12.398 -8.145,-13.273zm1.14,20.09c-0.165,0.366 -2.801,5.375 -8.232,3.428c-5.429,-1.951 -4.583,-6.543 -4.483,-7.118c0,0 5.489,5.587 12.551,3.371c-0.001,0 0.313,-0.055 0.164,0.319zm-3.86,-4.801c0,0 -4.164,-0.05 -6.269,-3.746c0,0 -2.112,-3.058 1.846,-5.905c0.152,-0.051 1.74,-1.477 5.325,-0.686c0,0 5.272,1.426 5.217,5.852c-0.049,4.435 -4.475,4.59 -6.119,4.485z" id="path5206" fill="#93b7be"/>
  </g>
 </g>
</svg>